<?xml version="1.0" standalone="no"?>
<!DOCTYPE svg PUBLIC "-//W3C//DTD SVG 20010904//EN"
 "http://www.w3.org/TR/2001/REC-SVG-20010904/DTD/svg10.dtd">
<svg version="1.0" xmlns="http://www.w3.org/2000/svg"
 width="341.000000pt" height="341.000000pt" viewBox="0 0 341.000000 341.000000"
 preserveAspectRatio="xMidYMid meet">
<metadata>
Created by potrace 1.11, written by Peter Selinger 2001-2013
</metadata>
<g transform="translate(0.000000,341.000000) scale(0.100000,-0.100000)"
fill="#000000" stroke="none">
<path d="M0 1705 l0 -1705 1705 0 1705 0 0 1705 0 1705 -1705 0 -1705 0 0
-1705z m858 686 c2 -301 5 -397 15 -403 6 -4 302 -8 656 -8 354 0 645 -1 648
-3 2 -3 6 -503 3 -594 0 -10 -142 -13 -657 -15 l-658 -3 -5 -440 -5 -440 -310
-3 c-171 -1 -320 0 -332 3 l-23 5 0 1144 c0 628 3 1146 7 1149 4 4 153 6 332
5 l326 -3 3 -394z m2362 -756 l0 -1155 -318 0 c-234 0 -321 3 -330 12 -9 9
-12 278 -12 1148 0 625 3 1140 7 1143 3 4 152 7 330 7 l323 0 0 -1155z"/>
</g>
</svg>
